ffmpeg version 8.1 Copyright (c) 2000-2026 the FFmpeg developers
  built with Apple clang version 21.0.0 (clang-2100.0.123.102)
  configuration: --prefix=/opt/homebrew/Cellar/ffmpeg/8.1 --enable-shared --enable-pthreads --enable-version3 --cc=clang --host-cflags= --host-ldflags= --enable-ffplay --enable-gpl --enable-libsvtav1 --enable-libopus --enable-libx264 --enable-libmp3lame --enable-libdav1d --enable-libvmaf --enable-libvpx --enable-libx265 --enable-openssl --enable-videotoolbox --enable-audiotoolbox --enable-neon
  libavutil      60. 26.100 / 60. 26.100
  libavcodec     62. 28.100 / 62. 28.100
  libavformat    62. 12.100 / 62. 12.100
  libavdevice    62.  3.100 / 62.  3.100
  libavfilter    11. 14.100 / 11. 14.100
  libswscale      9.  5.100 /  9.  5.100
  libswresample   6.  3.100 /  6.  3.100
Input #0, mov,mp4,m4a,3gp,3g2,mj2, from 'raw_heygen.mp4':
  Metadata:
    major_brand     : isom
    minor_version   : 512
    compatible_brands: isomiso2avc1mp41
    encoder         : Lavf62.3.100
  Duration: 00:01:01.27, start: 0.000000, bitrate: 474 kb/s
  Stream #0:0[0x1](und): Video: h264 (High) (avc1 / 0x31637661), yuv420p(progressive), 1280x720 [SAR 1:1 DAR 16:9], 279 kb/s, 25 fps, 25 tbr, 12800 tbn (default)
    Metadata:
      handler_name    : VideoHandler
  Stream #0:1[0x2](und): Audio: aac (LC) (mp4a / 0x6134706D), 48000 Hz, stereo, fltp, 189 kb/s (default)
    Metadata:
      handler_name    : SoundHandler
Input #1, png_pipe, from '/Users/haotianliu/.openclaw/workspace/ystar-company/content/offended_ai/v8/overlay_lower_third.png':
  Duration: N/A, bitrate: N/A
  Stream #1:0: Video: png, rgba(pc, gbr/unknown/unknown), 1280x720, 25 fps, 25 tbr, 25 tbn
Stream mapping:
  Stream #0:0 (h264) -> overlay
  Stream #1:0 (png) -> overlay
  overlay:default -> Stream #0:0 (libx264)
  Stream #0:1 -> #0:1 (aac (native) -> aac (native))
Press [q] to stop, [?] for help
[libx264 @ 0xb99051880] using SAR=1/1
[libx264 @ 0xb99051880] using cpu capabilities: ARMv8 NEON DotProd I8MM
[libx264 @ 0xb99051880] profile High 4:4:4 Predictive, level 3.1, 4:4:4, 8-bit
[libx264 @ 0xb99051880] 264 - core 165 r3222 b35605a - H.264/MPEG-4 AVC codec - Copyleft 2003-2025 - http://www.videolan.org/x264.html - options: cabac=1 ref=3 deblock=1:0:0 analyse=0x3:0x113 me=hex subme=7 psy=1 psy_rd=1.00:0.00 mixed_ref=1 me_range=16 chroma_me=1 trellis=1 8x8dct=1 cqm=0 deadzone=21,11 fast_pskip=1 chroma_qp_offset=4 threads=15 lookahead_threads=2 sliced_threads=0 nr=0 decimate=1 interlaced=0 bluray_compat=0 constrained_intra=0 bframes=3 b_pyramid=2 b_adapt=1 b_bias=0 direct=1 weightb=1 open_gop=0 weightp=2 keyint=250 keyint_min=25 scenecut=40 intra_refresh=0 rc_lookahead=40 rc=crf mbtree=1 crf=20.0 qcomp=0.60 qpmin=0 qpmax=69 qpstep=4 ip_ratio=1.40 aq=1:1.00
Output #0, mp4, to 'episode_001_FINAL_60s_v8.mp4':
  Metadata:
    major_brand     : isom
    minor_version   : 512
    compatible_brands: isomiso2avc1mp41
    encoder         : Lavf62.12.100
  Stream #0:0: Video: h264 (avc1 / 0x31637661), yuv444p(tv, progressive), 1280x720 [SAR 1:1 DAR 16:9], q=2-31, 25 fps, 12800 tbn
    Metadata:
      encoder         : Lavc62.28.100 libx264
    Side data:
      CPB properties: bitrate max/min/avg: 0/0/0 buffer size: 0 vbv_delay: N/A
  Stream #0:1(und): Audio: aac (LC) (mp4a / 0x6134706D), 48000 Hz, stereo, fltp, 128 kb/s (default)
    Metadata:
      encoder         : Lavc62.28.100 aac
      handler_name    : SoundHandler
frame=  227 fps=0.0 q=25.0 size=     256KiB time=00:00:09.00 bitrate= 233.1kbits/s speed=17.8x elapsed=0:00:00.50    frame=  443 fps=440 q=25.0 size=     512KiB time=00:00:17.64 bitrate= 237.8kbits/s speed=17.5x elapsed=0:00:01.00    frame=  689 fps=456 q=25.0 size=    1024KiB time=00:00:27.48 bitrate= 305.3kbits/s speed=18.2x elapsed=0:00:01.51    frame=  950 fps=471 q=25.0 size=    1536KiB time=00:00:37.92 bitrate= 331.8kbits/s speed=18.8x elapsed=0:00:02.01    frame= 1216 fps=483 q=25.0 size=    1792KiB time=00:00:48.56 bitrate= 302.3kbits/s speed=19.3x elapsed=0:00:02.51    frame= 1524 fps=504 q=-1.0 size=    2304KiB time=N/A bitrate=N/A speed=N/A elapsed=0:00:03.02    [mp4 @ 0xb98c27980] Starting second pass: moving the moov atom to the beginning of the file
[out#0/mp4 @ 0xb98c14780] video:1601KiB audio:954KiB subtitle:0KiB other streams:0KiB global headers:0KiB muxing overhead: 1.839616%
frame= 1531 fps=506 q=-1.0 Lsize=    2602KiB time=00:01:01.16 bitrate= 348.5kbits/s speed=20.2x elapsed=0:00:03.02    
[libx264 @ 0xb99051880] frame I:7     Avg QP:11.31  size: 56757
[libx264 @ 0xb99051880] frame P:386   Avg QP:15.53  size:  2389
[libx264 @ 0xb99051880] frame B:1138  Avg QP:19.53  size:   281
[libx264 @ 0xb99051880] consecutive B-frames:  0.8%  0.3%  0.2% 98.8%
[libx264 @ 0xb99051880] mb I  I16..4: 23.8% 62.3% 14.0%
[libx264 @ 0xb99051880] mb P  I16..4:  0.0%  0.1%  0.0%  P16..4:  5.4%  2.3%  1.4%  0.0%  0.0%    skip:90.7%
[libx264 @ 0xb99051880] mb B  I16..4:  0.0%  0.0%  0.0%  B16..8:  3.6%  0.3%  0.0%  direct: 0.0%  skip:96.0%  L0:46.1% L1:45.9% BI: 7.9%
[libx264 @ 0xb99051880] 8x8 transform intra:63.7% inter:67.1%
[libx264 @ 0xb99051880] coded y,u,v intra: 30.0% 19.8% 17.9% inter: 0.9% 0.3% 0.2%
[libx264 @ 0xb99051880] i16 v,h,dc,p: 80% 19%  1%  0%
[libx264 @ 0xb99051880] i8 v,h,dc,ddl,ddr,vr,hd,vl,hu: 21%  7% 58%  1%  2%  3%  3%  2%  2%
[libx264 @ 0xb99051880] i4 v,h,dc,ddl,ddr,vr,hd,vl,hu: 23% 26% 17%  3%  7%  7%  7%  4%  5%
[libx264 @ 0xb99051880] Weighted P-Frames: Y:0.0% UV:0.0%
[libx264 @ 0xb99051880] ref P L0: 53.4%  9.9% 23.3% 13.3%
[libx264 @ 0xb99051880] ref B L0: 90.0%  8.0%  2.0%
[libx264 @ 0xb99051880] ref B L1: 97.4%  2.6%
[libx264 @ 0xb99051880] kb/s:214.14
[aac @ 0xb99051f80] Qavg: 607.683
[v8] script word count = 173 (target 165-180 for 57-60s at 3.0 wps)

== 1. Upload portrait (v4 asset inherited) ==
{
  "code": 100,
  "data": {
    "id": "d20c8103fd6741a2bd6238018c706074",
    "name": "d20c8103fd6741a2bd6238018c706074",
    "file_type": "image",
    "folder_id": "",
    "meta": null,
    "created_ts": 1776135453,
    "url": "https://resource2.heygen.ai/image/d20c8103fd6741a2bd6238018c706074/original.jpg",
    "image_key": "image/d20c8103fd6741a2bd6238018c706074/original.jpg"
  },
  "msg": null,
  "message": null
}

== 2. Create photo avatar group ==
{
  "error": null,
  "data": {
    "id": "0f7a7963c37e42dd94733a040b75e017",
    "image_url": "https://files2.heygen.ai/image/d20c8103fd6741a2bd6238018c706074/original.jpg?Expires=1776740254&Signature=g3X~suEWrBJ4zylhSPPV9QaRClfJV3WMQH79jX~87XK1uvZ6DjF9ERPWjkVzfKn2XJxXw1eM8LqgAos0VlLQF8Ojw7bGpCI4qRMP5VRnqLYtZLOJoDU81d2e1IUENzkLFSgm24lauqdIcNjNcEAJDbw9tjj24V77JCZVaumE0UOsnYHLSwAyuuprJwTqWXQa5cox~jkcsJFziOiIyLECA4IRvrciX9QoE5tHsjeYJPUDiJ46jTT4Ch1Kcss~INm78CNQDPPM67875xyWXWm5q7OF1dkSjoBcgeMCSAn7SIcimtgvM3EV5dNwDthwKVmGI~DWVFPZbLIzukA~Jho~Ng__&Key-Pair-Id=K38HBHX5LX3X2H",
    "created_at": 1776135454.196961,
    "name": "sofia_v8_latenight_20260413",
    "status": "pending",
    "group_id": "0f7a7963c37e42dd94733a040b75e017",
    "is_motion": false,
    "motion_preview_url": null,
    "business_type": "uploaded",
    "upscale_availability": {
      "available": false,
      "reason": "Photo avatar look upload not completed"
    },
    "upscaled": false,
    "background_sound_effect": null,
    "default_voice_id": null,
    "moderation_msg": null,
    "workflow_error": null
  }
}

== 2b. Allow 60s for internal dimension extraction (per ep002 notes) ==

== 3. Upload flat #1a1a1a background ==
{
  "code": 100,
  "data": {
    "id": "8e88c24e687549efa65fbe5a917f652e",
    "name": "8e88c24e687549efa65fbe5a917f652e",
    "file_type": "image",
    "folder_id": "",
    "meta": null,
    "created_ts": 1776135514,
    "url": "https://resource2.heygen.ai/image/8e88c24e687549efa65fbe5a917f652e/original.png",
    "image_key": "image/8e88c24e687549efa65fbe5a917f652e/original.png"
  },
  "msg": null,
  "message": null
}

== 4. Generate Avatar IV video (expressive+motion_strength=1.0) ==
{
  "error": null,
  "data": {
    "video_id": "d0318de1a5db4e328daea2b80a05ae96"
  }
}

== 5. Poll status ==
[00] status=waiting
[01] status=processing
[02] status=processing
[03] status=processing
[04] status=processing
[05] status=processing
[06] status=processing
[07] status=processing
[08] status=processing
[09] status=processing
[10] status=processing
[11] status=processing
[12] status=processing
[13] status=processing
[14] status=processing
[15] status=processing
[16] status=processing
[17] status=processing
[18] status=processing
[19] status=completed
VIDEO_URL=https://files2.heygen.ai/aws_pacific/avatar_tmp/e57ca395ff1740708674fe17987df17b/d0318de1a5db4e328daea2b80a05ae96.mp4?Ex...
Downloaded raw_heygen.mp4 (3634805 bytes)

== 6. Composite lower-third overlay ==
Wrote episode_001_FINAL_60s_v8.mp4 (2664437 bytes)
Copied -> /Users/haotianliu/.openclaw/workspace/ystar-company/content/offended_ai/episode_001_FINAL_60s_v8.mp4
duration_sec=61.271000
sha256=33527d04c9cd66f5c55eab5bc78a1d6d9d4a3ed22d995b6fd3b310417526bc32
bytes=2664437
